<?xml version="1.0" encoding="UTF-8" standalone="no"?>
<!-- Created with Inkscape (http://www.inkscape.org/) -->

<svg
   width="32"
   height="32"
   viewBox="0 0 8.4666666 8.4666666"
   version="1.1"
   id="svg1"
   xml:space="preserve"
   inkscape:version="1.4.2 (f4327f4, 2025-05-13)"
   sodipodi:docname="mybts.svg"
   xmlns:inkscape="http://www.inkscape.org/namespaces/inkscape"
   xmlns:sodipodi="http://sodipodi.sourceforge.net/DTD/sodipodi-0.dtd"
   xmlns="http://www.w3.org/2000/svg"
   xmlns:svg="http://www.w3.org/2000/svg"><sodipodi:namedview
     id="namedview1"
     pagecolor="#505050"
     bordercolor="#eeeeee"
     borderopacity="1"
     inkscape:showpageshadow="0"
     inkscape:pageopacity="0"
     inkscape:pagecheckerboard="0"
     inkscape:deskcolor="#505050"
     inkscape:document-units="mm"
     inkscape:zoom="22.627417"
     inkscape:cx="16.83798"
     inkscape:cy="16.948466"
     inkscape:window-width="2560"
     inkscape:window-height="1027"
     inkscape:window-x="-8"
     inkscape:window-y="-8"
     inkscape:window-maximized="1"
     inkscape:current-layer="g11"
     showgrid="false" /><defs
     id="defs1"><clipPath
       clipPathUnits="userSpaceOnUse"
       id="clipPath42"><path
         id="path43"
         style="fill:#ff0000;fill-opacity:1;fill-rule:nonzero;stroke:none;stroke-width:0.264583"
         d="M 1.3208496,0.04650879 V 8.4201579 H 2.8695923 C 2.8428603,8.3317927 2.8292745,8.2397118 2.8194661,8.1478231 2.8110947,8.0531245 2.8097268,7.9580901 2.808097,7.8630859 2.807171,7.8038989 2.8068005,7.7445121 2.806536,7.685319 2.803316,7.630505 2.8213791,7.5788946 2.8411591,7.5287394 c 0.012319,-0.036282 0.038291,-0.062888 0.061495,-0.091984 0.00563,-0.0063 0.011327,-0.012994 0.016536,-0.019637 -0.00724,-3.704e-4 -0.01447,-6.614e-4 -0.021704,-0.00103 -0.1155983,-0.00602 -0.102698,-0.1220552 0.01292,-0.116272 0.038921,0.00196 0.077853,0.00354 0.1167887,0.00517 0.036168,-0.032869 0.09876,-0.051468 0.1834515,-0.037207 0.2067177,0.034809 0.4167905,0.047244 0.6258015,0.060978 0.00971,2.91e-4 0.019225,7.408e-4 0.028939,0.00103 0.1252352,0.00458 0.2502257,0.010991 0.3751707,0.020153 0.023363,4.498e-4 0.046905,6.879e-4 0.07028,5.292e-4 0.076275,-5.557e-4 0.1052822,-0.00376 0.1813843,-0.0093 0.1702798,-0.01637 0.3399676,-0.03571 0.510563,-0.048576 0.1147477,-0.00917 0.229788,-0.010345 0.3446817,-0.016536 0.055413,-0.00368 0.1109332,-0.00803 0.1663983,-0.010853 0.021333,-0.00177 0.042867,-0.00383 0.064079,-0.00672 0.015772,-0.00214 0.030391,-0.0031 0.044442,-0.0031 0.2107594,-5.45e-5 0.226341,0.2265175 -0.010335,0.2578656 -0.028225,0.00374 -0.05686,0.00678 -0.085266,0.00879 -0.055253,0.00279 -0.1101574,0.00729 -0.1653645,0.010851 -0.039978,0.00212 -0.079954,0.00357 -0.1198894,0.00517 0.1152996,0.020492 0.1504583,0.1175615 0.093534,0.1860351 0.012848,0.020754 0.025101,0.042129 0.03669,0.063562 0.066417,0.031997 0.089024,0.091543 0.068213,0.1426268 0.00936,0.021767 0.018531,0.04363 0.027388,0.065629 0.00745,0.019831 0.01497,0.039721 0.022738,0.059428 0.11944,0.031901 0.1467884,0.133064 0.085783,0.1958536 0.00321,0.00653 0.00654,0.013139 0.00982,0.019637 0.025445,0.049381 0.051726,0.098449 0.073897,0.1493449 h 1.486213 V 0.04650879 Z M 3.030306,7.463627 C 3.018582,7.479809 3.006412,7.495742 2.993099,7.510653 2.97701,7.529954 2.958691,7.547505 2.949691,7.571631 2.935274,7.607989 2.920296,7.644864 2.923336,7.6848023 c 2.501e-4,0.058691 6.35e-4,0.1175316 0.00156,0.1762167 0.00156,0.091548 0.00295,0.1831372 0.010853,0.2744018 0.010197,0.096427 0.025239,0.1930371 0.057361,0.2847374 H 3.9041665 C 3.8871829,8.4152396 3.8703557,8.4100855 3.8535234,8.4046536 3.7350147,8.3664216 3.6941305,8.2887775 3.7114133,8.2284369 3.6876987,8.2260027 3.6637529,8.2234574 3.6400999,8.2206846 3.4766692,8.2015341 3.4269296,8.0878061 3.4804197,8.0175963 3.3042794,7.9896634 3.280047,7.8311206 3.4080725,7.7798848 3.3951344,7.7787206 3.3822439,7.7776094 3.3693153,7.7762679 3.1687468,7.7555193 3.1403205,7.5907138 3.2628618,7.5359726 c -0.036541,-0.00517 -0.073222,-0.011089 -0.1095539,-0.017571 -0.055951,-0.00998 -0.096423,-0.030017 -0.12299,-0.054777 z m 2.3156209,0.5446697 c -0.025159,0.00817 -0.054888,0.012898 -0.0894,0.01292 -0.060691,3.62e-5 -0.1212101,4.233e-4 -0.181901,5.291e-4 -0.09855,1.67e-4 -0.1970098,6.615e-4 -0.2955891,0.00103 -0.01102,0.00375 -0.02231,0.00655 -0.03359,0.0093 0.069091,0.00254 0.1381038,0.00494 0.2072225,0.00672 0.1162743,0.00268 0.2325155,0.0043 0.3488158,0.00517 0.019643,-2.86e-5 0.039226,-2.238e-4 0.058911,0 -5.557e-4,-0.00146 -0.00101,-0.00267 -0.00156,-0.00413 -0.00422,-0.010528 -0.00859,-0.021032 -0.01292,-0.031523 z M 4.4782796,8.2780476 c 0.09998,0.017836 0.2002959,0.034633 0.3007569,0.049093 0.061782,0.01066 0.1237231,0.017949 0.1855184,0.028422 0.026458,0.00542 0.053183,0.00932 0.079582,0.014986 0.046518,0.00998 0.081975,0.02778 0.107487,0.049609 h 0.379305 c -0.016073,-0.03259 -0.033314,-0.064822 -0.049609,-0.097152 -0.00384,-0.00765 -0.00761,-0.015571 -0.011369,-0.023254 -0.017613,0.00257 -0.036924,0.00387 -0.057878,0.0031 -0.037375,-0.00138 -0.074737,-0.00146 -0.1121379,-0.00156 C 5.1820633,8.3004181 5.0637961,8.2988571 4.945951,8.2961239 4.789945,8.2921023 4.6340906,8.2857258 4.4782793,8.278037 Z" /></clipPath></defs><g
     inkscape:groupmode="layer"
     id="layer4"
     inkscape:label="Warstwa 4"
     style="display:inline"><path
       id="path8"
       style="display:inline;opacity:1;fill:#006680;fill-opacity:1;stroke:#404040;stroke-width:0.0329999;stroke-linecap:round;stroke-linejoin:round;paint-order:markers stroke fill;stroke-opacity:1"
       d="M 4.2333333,6.7236206 A 2.5218101,0.74250817 0 0 0 1.7115234,7.4662109 2.5218101,0.74250817 0 0 0 4.2333333,8.2082845 2.5218101,0.74250817 0 0 0 6.7551432,7.4662109 2.5218101,0.74250817 0 0 0 4.2333333,6.7236206 Z m 0,0.1049032 A 2.0287426,0.5554195 0 0 1 6.2621501,7.3840454 2.0287426,0.5554195 0 0 1 4.2333333,7.9395671 2.0287426,0.5554195 0 0 1 2.2045166,7.3840454 2.0287426,0.5554195 0 0 1 4.2333333,6.8285238 Z" /></g><g
     inkscape:groupmode="layer"
     id="layer3"
     inkscape:label="Warstwa 3"
     style="display:inline"><path
       id="path7"
       style="display:none;opacity:1;fill:#008080;fill-opacity:1;stroke:none;stroke-width:0.0329999;stroke-linecap:round;stroke-linejoin:round;paint-order:markers stroke fill"
       d="m 4.2333333,0.04670734 c -1.6080446,0 -2.9122279,1.24812576 -2.9122279,2.78630976 0,1.538184 1.4438944,4.1823998 2.9122279,5.5869422 1.6549731,-1.5830738 2.9122279,-4.0487582 2.9122279,-5.5869422 0,-1.538184 -1.3041833,-2.78630976 -2.9122279,-2.78630976 z m 0,0.78773379 A 2.0955681,2.0955681 0 0 1 6.3291826,2.9302904 2.0955681,2.0955681 0 0 1 4.2333333,5.0255429 2.0955681,2.0955681 0 0 1 2.137484,2.9302904 2.0955681,2.0955681 0 0 1 4.2333333,0.83444113 Z"
       clip-path="url(#clipPath42)" /></g><g
     inkscape:groupmode="layer"
     id="g11"
     inkscape:label="Warstwa 3"
     style="display:inline"><path
       id="path11"
       style="display:inline;opacity:1;fill:#00aad4;fill-opacity:1;stroke:#3f3f3f;stroke-width:0.03307292;stroke-linecap:round;stroke-linejoin:round;paint-order:markers stroke fill;stroke-opacity:1;stroke-dasharray:none"
       d="M 4.2333333 0.20257161 C 2.8408658 0.20257161 1.7115234 1.2833716 1.7115234 2.6153442 C 1.7115234 3.9473167 2.961847 6.2370446 4.2333333 7.4532918 C 5.666438 6.0824474 6.7551432 3.9473167 6.7551432 2.6153442 C 6.7551432 1.2833716 5.6258008 0.20257161 4.2333333 0.20257161 z M 4.2333333 1.2510864 A 1.3388532 1.3388532 0 0 1 5.5722697 2.5900228 A 1.3388532 1.3388532 0 0 1 4.2333333 3.9289591 A 1.3388532 1.3388532 0 0 1 2.894397 2.5900228 A 1.3388532 1.3388532 0 0 1 4.2333333 1.2510864 z " /></g><g
     inkscape:groupmode="layer"
     id="layer6"
     inkscape:label="Layer 1" /></svg>
