<?xml version="1.0" encoding="UTF-8" standalone="no"?>
<!-- Created with Inkscape (http://www.inkscape.org/) -->

<svg
   width="32"
   height="32"
   viewBox="0 0 8.4666666 8.4666666"
   version="1.1"
   id="svg1"
   xml:space="preserve"
   inkscape:version="1.4.2 (f4327f4, 2025-05-13)"
   sodipodi:docname="termometr.svg"
   xmlns:inkscape="http://www.inkscape.org/namespaces/inkscape"
   xmlns:sodipodi="http://sodipodi.sourceforge.net/DTD/sodipodi-0.dtd"
   xmlns="http://www.w3.org/2000/svg"
   xmlns:svg="http://www.w3.org/2000/svg"><sodipodi:namedview
     id="namedview1"
     pagecolor="#505050"
     bordercolor="#eeeeee"
     borderopacity="1"
     inkscape:showpageshadow="0"
     inkscape:pageopacity="0"
     inkscape:pagecheckerboard="0"
     inkscape:deskcolor="#505050"
     inkscape:document-units="mm"
     inkscape:zoom="22.627417"
     inkscape:cx="24.660349"
     inkscape:cy="17.876543"
     inkscape:window-width="2560"
     inkscape:window-height="1027"
     inkscape:window-x="-8"
     inkscape:window-y="-8"
     inkscape:window-maximized="1"
     inkscape:current-layer="layer2"
     showgrid="false" /><defs
     id="defs1" /><g
     inkscape:label="Warstwa 1"
     inkscape:groupmode="layer"
     id="layer1"
     style="display:inline"><path
       id="rect1"
       style="display:inline;opacity:1;fill:#545454;stroke-width:0.04709583;stroke-linecap:round;stroke-linejoin:round;paint-order:markers stroke fill;fill-opacity:1;stroke:#000000;stroke-opacity:1;stroke-dasharray:none"
       d="M 4.1553019 0.3663859 C 3.7205047 0.3663859 3.3703369 0.71603702 3.3703369 1.1508341 L 3.3703369 2.8463379 C 3.3703369 2.8635409 3.3708083 2.8805756 3.3718872 2.8974976 C 3.3708072 2.9144196 3.3703369 2.9314532 3.3703369 2.9486572 L 3.3703369 4.644161 L 3.3703369 5.2084676 C 2.9235326 5.4999745 2.6541296 5.9973786 2.6541016 6.5308675 C 2.6540054 7.4030929 3.3611079 8.1101954 4.2333333 8.1100993 C 5.1055588 8.1101955 5.8126613 7.403093 5.8125651 6.5308675 C 5.8126152 5.9957657 5.541665 5.4970462 5.0927124 5.2058838 L 5.0927124 4.3847453 L 5.0927124 2.9486572 C 5.0927124 2.9314542 5.0917307 2.9144196 5.0906453 2.8974976 C 5.0917253 2.8805756 5.0927124 2.8635419 5.0927124 2.8463379 L 5.0927124 1.1508341 C 5.0927124 0.71603702 4.7425446 0.3663859 4.3077474 0.3663859 L 4.1553019 0.3663859 z M 4.1806234 0.63717041 L 4.2875936 0.63717041 C 4.592623 0.63717041 4.8384644 0.8824951 4.8384644 1.1875244 L 4.8384644 2.3771159 C 4.8384644 2.3891859 4.83767 2.4009016 4.8369141 2.4127726 C 4.8376713 2.4246446 4.8384644 2.4363604 4.8384644 2.4484294 L 4.8384644 3.4561198 L 4.8384644 3.6612752 L 4.8384644 4.032312 C 4.8487414 4.039032 4.8589055 4.0459236 4.8689535 4.0529826 L 4.8384644 4.0529826 L 4.8384644 4.8508667 C 4.8384644 4.8629367 4.83767 4.8746524 4.8369141 4.8865234 C 4.837671 4.8983954 4.8384644 4.9101112 4.8384644 4.9221802 L 4.8384644 5.0079631 L 4.8374308 5.1185506 C 4.8421608 5.4031997 4.9241519 5.3931732 4.9955607 5.457548 C 5.0192117 5.474357 5.0423071 5.491936 5.0648071 5.510258 C 5.0878191 5.526217 5.108518 5.5410821 5.124235 5.5603841 L 5.1232015 5.5603841 C 5.3998977 5.812058 5.5576884 6.1687179 5.5578003 6.5427531 C 5.557869 7.2765477 4.9629938 7.8714229 4.2291992 7.8713542 C 3.4956065 7.8711375 2.9010462 7.2763459 2.9011149 6.5427531 C 2.9011355 6.1712866 3.1687036 5.7299468 3.4483683 5.4730509 C 3.5343535 5.409899 3.637406 5.2929343 3.6282023 5.0286336 L 3.6297526 4.9852254 L 3.6297526 4.9221802 C 3.6297526 4.9101102 3.6300334 4.8983944 3.6307861 4.8865234 C 3.6300398 4.8746514 3.6297526 4.8629357 3.6297526 4.8508667 L 3.6297526 4.0529826 L 3.6018473 4.0529826 C 3.6110473 4.0464626 3.6203546 4.0400933 3.6297526 4.0338623 L 3.6297526 3.6612752 L 3.6297526 3.6380208 L 3.6297526 2.4484294 C 3.6297526 2.4363594 3.6300334 2.4246436 3.6307861 2.4127726 C 3.6300363 2.4009006 3.6297526 2.3891849 3.6297526 2.3771159 L 3.6297526 1.1875244 C 3.6297526 0.8824951 3.8755939 0.63717041 4.1806234 0.63717041 z " /></g><g
     inkscape:label="Warstwa 1"
     inkscape:groupmode="layer"
     id="g3"
     style="display:inline" /><g
     inkscape:label="Warstwa 1 kopia"
     inkscape:groupmode="layer"
     id="g4"
     style="display:inline"><path
       id="path10"
       style="opacity:1;fill:#ff2a2a;fill-opacity:1;stroke-width:0.0329999;stroke-linecap:round;stroke-linejoin:round;paint-order:markers stroke fill;stroke:#000000;stroke-opacity:1"
       d="M 4.2090454 3.1011027 C 4.0743019 3.1011027 3.9656494 3.2092384 3.9656494 3.3439819 L 3.9656494 3.8695312 C 3.9656494 3.8748612 3.9658317 3.8803069 3.9661662 3.8855509 C 3.9658315 3.8907909 3.9656494 3.8962386 3.9656494 3.9015706 L 3.9656494 4.4266032 L 3.9656494 4.5025675 L 3.9656494 4.9831584 C 3.9656494 4.9884884 3.9658317 4.9939341 3.9661662 4.9991781 C 3.9658315 5.0044181 3.9656494 5.0098658 3.9656494 5.0151978 L 3.9656494 5.3469604 L 3.9625488 5.3443766 C 3.9641043 5.3601453 3.9651266 5.3752258 3.9656494 5.3898519 C 3.9662106 5.40555 3.9661966 5.4208906 3.9656494 5.4353271 C 3.9602733 5.5771727 3.9033487 5.6591123 3.834908 5.7086955 A 0.93868428 0.93868428 0 0 0 3.7491252 5.7546875 C 3.743361 5.7569157 3.7377567 5.758933 3.7320719 5.7608887 L 3.7377563 5.7614054 A 0.93868428 0.93868428 0 0 0 3.2948893 6.5587728 A 0.93868428 0.93868428 0 0 0 4.2333333 7.4977336 A 0.93868428 0.93868428 0 0 0 5.1717773 6.5587728 A 0.93868428 0.93868428 0 0 0 4.7201253 5.7562378 L 4.7263265 5.755721 C 4.7202306 5.7536239 4.7139084 5.7514147 4.707723 5.7490031 A 0.93868428 0.93868428 0 0 0 4.628658 5.7076619 C 4.5692513 5.6664463 4.5178178 5.6015469 4.499467 5.4957886 L 4.499467 5.4601318 L 4.499467 5.0151978 C 4.499467 5.0098678 4.4992856 5.0044221 4.4989502 4.9991781 C 4.4992849 4.9939381 4.499467 4.9884904 4.499467 4.9831584 L 4.499467 4.457609 L 4.499467 4.3465047 L 4.499467 3.9015706 C 4.499467 3.8962406 4.4992856 3.8907949 4.4989502 3.8855509 C 4.4992849 3.8803109 4.499467 3.8748633 4.499467 3.8695312 L 4.499467 3.3439819 C 4.499467 3.2092384 4.3913313 3.1011027 4.2565877 3.1011027 L 4.2090454 3.1011027 z " /></g><g
     inkscape:groupmode="layer"
     id="layer2"
     inkscape:label="Warstwa 1 kopia 1"><path
       id="rect11"
       style="opacity:1;fill:#545454;fill-opacity:1;stroke-width:0.04709583;stroke-linecap:round;stroke-linejoin:round;paint-order:stroke markers fill;stroke:#000000;stroke-opacity:1;stroke-dasharray:none"
       d="m 2.7621053,1.5518433 c 0.1462195,0 0.2640666,0.089713 0.2640666,0.2010213 0,0.1113086 -0.1178471,0.2010213 -0.2640666,0.2010213 H 1.2810588 c -0.1462195,0 -0.2640666,-0.089713 -0.2640666,-0.2010213 0,-0.1113085 0.1178471,-0.2010213 0.2640666,-0.2010213 z m -0.016536,0.7544759 c 0.1462194,0 0.2640665,0.089713 0.2640665,0.2010213 0,0.1113086 -0.1178471,0.2010213 -0.2640665,0.2010213 h -0.794784 c -0.1462195,0 -0.2640665,-0.089713 -0.2640665,-0.2010213 0,-0.1113085 0.117847,-0.2010213 0.2640665,-0.2010213 z m 0,0.7544759 c 0.1462194,0 0.2640665,0.089713 0.2640665,0.2010213 0,0.1113086 -0.1178471,0.2010214 -0.2640665,0.2010214 h -1.481047 c -0.1462195,0 -0.2640666,-0.089713 -0.2640666,-0.2010214 0,-0.1113085 0.1178471,-0.2010213 0.2640666,-0.2010213 z M 2.7207642,3.815271 c 0.1462194,0 0.2640665,0.089713 0.2640665,0.2010213 0,0.1113086 -0.1178471,0.2010214 -0.2640665,0.2010214 H 1.9259806 c -0.1462194,0 -0.2640665,-0.089713 -0.2640665,-0.2010214 0,-0.1113085 0.1178471,-0.2010213 0.2640665,-0.2010213 z m 0.024805,0.7544759 c 0.1462194,0 0.2640665,0.089713 0.2640665,0.2010214 0,0.1113085 -0.1178471,0.2010213 -0.2640665,0.2010213 H 1.2645223 c -0.1462195,0 -0.2640666,-0.089713 -0.2640666,-0.2010213 0,-0.1113086 0.1178471,-0.2010214 0.2640666,-0.2010214 z" /></g></svg>
